<svg width="39" height="40" viewBox="0 0 39 40" fill="none" xmlns="http://www.w3.org/2000/svg">
<path d="M33.428 6.35601C31.6665 4.57668 29.5683 3.1659 27.2558 2.20595C24.9434 1.246 22.4629 0.756102 19.9591 0.764824C9.46846 0.764824 0.918358 9.31493 0.918358 19.8056C0.918358 23.168 1.80219 26.4343 3.45457 29.3164L0.764648 39.1922L10.8518 36.5408C13.6378 38.0586 16.7697 38.8656 19.9591 38.8656C30.4498 38.8656 38.9999 30.3155 38.9999 19.8248C38.9999 14.7332 37.0209 9.94898 33.428 6.35601ZM19.9591 35.6377C17.1155 35.6377 14.3295 34.8692 11.8894 33.4281L11.313 33.0823L5.3183 34.6578L6.91304 28.8168L6.52876 28.2212C4.94891 25.6984 4.11003 22.7823 4.10783 19.8056C4.10783 11.0826 11.2169 3.97351 19.9399 3.97351C24.167 3.97351 28.1442 5.62589 31.1223 8.62323C32.5969 10.0911 33.7655 11.837 34.5604 13.7599C35.3553 15.6827 35.7606 17.7442 35.7528 19.8248C35.7913 28.5479 28.6822 35.6377 19.9591 35.6377ZM28.6437 23.8021C28.1634 23.5715 25.8193 22.4187 25.3966 22.2458C24.9547 22.092 24.6473 22.0152 24.3207 22.4763C23.994 22.9567 23.091 24.0326 22.822 24.3401C22.553 24.6667 22.2648 24.7051 21.7845 24.4553C21.3041 24.2248 19.767 23.706 17.9609 22.092C16.5391 20.8239 15.5976 19.2676 15.3094 18.7873C15.0404 18.3069 15.271 18.0572 15.5208 17.8074C15.7321 17.596 16.0011 17.2502 16.2317 16.9812C16.4623 16.7122 16.5583 16.5009 16.712 16.1934C16.8657 15.8668 16.7889 15.5978 16.6736 15.3672C16.5583 15.1367 15.5976 12.7926 15.2134 11.8319C14.8291 10.9097 14.4256 11.0249 14.1374 11.0057H13.2151C12.8885 11.0057 12.3889 11.121 11.947 11.6014C11.5243 12.0817 10.2947 13.2345 10.2947 15.5786C10.2947 17.9227 12.0047 20.1899 12.2352 20.4973C12.4658 20.8239 15.5976 25.6274 20.3626 27.6832C21.4962 28.1828 22.3801 28.471 23.0718 28.6823C24.2054 29.0474 25.2429 28.9898 26.0691 28.8745C26.9914 28.74 28.8935 27.7217 29.2778 26.6073C29.6813 25.4929 29.6813 24.5514 29.5468 24.3401C29.4123 24.1287 29.1241 24.0326 28.6437 23.8021Z" fill="black"/>
</svg>
