<svg width="137" height="39" viewBox="0 0 137 39" fill="none" xmlns="http://www.w3.org/2000/svg">
<path d="M13.152 31V27.544L12.928 26.808V20.76C12.928 19.5867 12.576 18.68 11.872 18.04C11.168 17.3787 10.1013 17.048 8.672 17.048C7.712 17.048 6.76267 17.1973 5.824 17.496C4.90667 17.7947 4.128 18.2107 3.488 18.744L1.92 15.832C2.83733 15.128 3.92533 14.6053 5.184 14.264C6.464 13.9013 7.78667 13.72 9.152 13.72C11.6267 13.72 13.536 14.3173 14.88 15.512C16.2453 16.6853 16.928 18.5093 16.928 20.984V31H13.152ZM7.776 31.224C6.496 31.224 5.376 31.0107 4.416 30.584C3.456 30.136 2.70933 29.528 2.176 28.76C1.664 27.9707 1.408 27.0853 1.408 26.104C1.408 25.144 1.632 24.28 2.08 23.512C2.54933 22.744 3.30667 22.136 4.352 21.688C5.39733 21.24 6.784 21.016 8.512 21.016H13.472V23.672H8.8C7.43467 23.672 6.51733 23.896 6.048 24.344C5.57867 24.7707 5.344 25.304 5.344 25.944C5.344 26.6693 5.632 27.2453 6.208 27.672C6.784 28.0987 7.584 28.312 8.608 28.312C9.58933 28.312 10.464 28.088 11.232 27.64C12.0213 27.192 12.5867 26.5307 12.928 25.656L13.6 28.056C13.216 29.0587 12.5227 29.8373 11.52 30.392C10.5387 30.9467 9.29067 31.224 7.776 31.224ZM25.3255 27.192L25.4215 22.168L34.3495 13.912H39.1495L31.5655 21.528L29.4535 23.288L25.3255 27.192ZM22.0615 31V7.256H26.0615V31H22.0615ZM34.9575 31L28.7175 23.288L31.2455 20.088L39.8215 31H34.9575ZM49.3248 31.224C47.8741 31.224 46.5941 30.9573 45.4848 30.424C44.3754 29.8693 43.5114 29.0373 42.8928 27.928C42.2741 26.7973 41.9648 25.3787 41.9648 23.672V13.912H45.9648V23.128C45.9648 24.664 46.3061 25.816 46.9888 26.584C47.6928 27.3307 48.6848 27.704 49.9648 27.704C50.9034 27.704 51.7141 27.512 52.3968 27.128C53.1008 26.744 53.6448 26.168 54.0288 25.4C54.4341 24.632 54.6368 23.6827 54.6368 22.552V13.912H58.6368V31H54.8288V26.392L55.5008 27.8C54.9248 28.9093 54.0821 29.7627 52.9728 30.36C51.8634 30.936 50.6474 31.224 49.3248 31.224ZM71.106 31.224C69.4633 31.224 67.9807 30.8613 66.658 30.136C65.3567 29.3893 64.3327 28.3653 63.586 27.064C62.8393 25.7627 62.466 24.2267 62.466 22.456C62.466 20.6853 62.8393 19.1493 63.586 17.848C64.3327 16.5467 65.3567 15.5333 66.658 14.808C67.9807 14.0827 69.4633 13.72 71.106 13.72C72.5353 13.72 73.8153 14.04 74.946 14.68C76.0767 15.2987 76.9727 16.248 77.634 17.528C78.2953 18.808 78.626 20.4507 78.626 22.456C78.626 24.44 78.306 26.0827 77.666 27.384C77.026 28.664 76.1407 29.624 75.01 30.264C73.8793 30.904 72.578 31.224 71.106 31.224ZM71.586 27.8C72.546 27.8 73.3993 27.5867 74.146 27.16C74.914 26.7333 75.522 26.1147 75.97 25.304C76.4393 24.4933 76.674 23.544 76.674 22.456C76.674 21.3467 76.4393 20.3973 75.97 19.608C75.522 18.7973 74.914 18.1787 74.146 17.752C73.3993 17.3253 72.546 17.112 71.586 17.112C70.626 17.112 69.762 17.3253 68.994 17.752C68.2473 18.1787 67.6393 18.7973 67.17 19.608C66.722 20.3973 66.498 21.3467 66.498 22.456C66.498 23.544 66.722 24.4933 67.17 25.304C67.6393 26.1147 68.2473 26.7333 68.994 27.16C69.762 27.5867 70.626 27.8 71.586 27.8ZM76.77 31V26.968L76.93 22.424L76.61 17.88V7.256H80.578V31H76.77ZM85.8428 31V13.912H89.8428V31H85.8428ZM87.8588 11.096C87.1121 11.096 86.4934 10.8613 86.0028 10.392C85.5334 9.92267 85.2988 9.35733 85.2988 8.696C85.2988 8.01333 85.5334 7.448 86.0028 7C86.4934 6.53067 87.1121 6.296 87.8588 6.296C88.6054 6.296 89.2134 6.52 89.6828 6.968C90.1734 7.39467 90.4188 7.93867 90.4188 8.6C90.4188 9.304 90.1841 9.90133 89.7148 10.392C89.2454 10.8613 88.6268 11.096 87.8588 11.096ZM98.3568 27.192L98.4528 22.168L107.381 13.912H112.181L104.597 21.528L102.485 23.288L98.3568 27.192ZM95.0928 31V7.256H99.0928V31H95.0928ZM107.989 31L101.749 23.288L104.277 20.088L112.853 31H107.989ZM125.652 31V27.544L125.428 26.808V20.76C125.428 19.5867 125.076 18.68 124.372 18.04C123.668 17.3787 122.601 17.048 121.172 17.048C120.212 17.048 119.263 17.1973 118.324 17.496C117.407 17.7947 116.628 18.2107 115.988 18.744L114.42 15.832C115.337 15.128 116.425 14.6053 117.684 14.264C118.964 13.9013 120.287 13.72 121.652 13.72C124.127 13.72 126.036 14.3173 127.38 15.512C128.745 16.6853 129.428 18.5093 129.428 20.984V31H125.652ZM120.276 31.224C118.996 31.224 117.876 31.0107 116.916 30.584C115.956 30.136 115.209 29.528 114.676 28.76C114.164 27.9707 113.908 27.0853 113.908 26.104C113.908 25.144 114.132 24.28 114.58 23.512C115.049 22.744 115.807 22.136 116.852 21.688C117.897 21.24 119.284 21.016 121.012 21.016H125.972V23.672H121.3C119.935 23.672 119.017 23.896 118.548 24.344C118.079 24.7707 117.844 25.304 117.844 25.944C117.844 26.6693 118.132 27.2453 118.708 27.672C119.284 28.0987 120.084 28.312 121.108 28.312C122.089 28.312 122.964 28.088 123.732 27.64C124.521 27.192 125.087 26.5307 125.428 25.656L126.1 28.056C125.716 29.0587 125.023 29.8373 124.02 30.392C123.039 30.9467 121.791 31.224 120.276 31.224Z" fill="black"/>
<path d="M137 6.5C137 8.98528 134.985 11 132.5 11C130.015 11 128 8.98528 128 6.5C128 4.01472 130.015 2 132.5 2C134.985 2 137 4.01472 137 6.5Z" fill="#4AAFDA"/>
</svg>
