<svg width="152" height="24" viewBox="0 0 152 24" fill="none" xmlns="http://www.w3.org/2000/svg">
<path d="M20 0C14.6666 0 11.3344 2.66563 10 7.99906C11.9994 5.33313 14.3334 4.33344 16.9994 5C18.5216 5.37938 19.6094 6.48313 20.8141 7.70625C22.7747 9.69594 25.0441 11.9994 30 11.9994C35.3331 11.9994 38.6656 9.33344 40 3.99875C38.0003 6.66625 35.6666 7.66594 33.0003 6.99938C31.4784 6.61969 30.3919 5.51625 29.1856 4.29313C27.2263 2.30344 24.9575 0 20 0ZM10 11.9994C4.66687 11.9994 1.33438 14.6653 0 20C1.99937 17.3325 4.33313 16.3328 6.99938 16.9994C8.52156 17.3791 9.60938 18.4825 10.8141 19.7056C12.7747 21.6953 15.0441 23.9988 20 23.9988C25.3331 23.9988 28.6656 21.3331 30 15.9997C28.0003 18.6656 25.6666 19.6653 23.0003 18.9988C21.4784 18.6194 20.3919 17.5156 19.1856 16.2925C17.2262 14.3028 14.9575 11.9994 10 11.9994Z" fill="#38BDF8"/>
<path d="M50.094 18.126C49.038 18.126 48.222 17.856 47.646 17.316C47.07 16.764 46.782 15.954 46.782 14.886V6.264H49.032V14.832C49.032 15.288 49.146 15.642 49.374 15.894C49.614 16.146 49.944 16.272 50.364 16.272C50.868 16.272 51.288 16.14 51.624 15.876L52.254 17.478C51.99 17.694 51.666 17.856 51.282 17.964C50.898 18.072 50.502 18.126 50.094 18.126ZM45.198 10.26V8.46H51.606V10.26H45.198ZM60.0269 18V16.056L59.9009 15.642V12.24C59.9009 11.58 59.7029 11.07 59.3069 10.71C58.9109 10.338 58.3109 10.152 57.5069 10.152C56.9669 10.152 56.4329 10.236 55.9049 10.404C55.3889 10.572 54.9509 10.806 54.5909 11.106L53.7089 9.468C54.2249 9.072 54.8369 8.778 55.5449 8.586C56.2649 8.382 57.0089 8.28 57.7769 8.28C59.1689 8.28 60.2429 8.616 60.9989 9.288C61.7669 9.948 62.1509 10.974 62.1509 12.366V18H60.0269ZM57.0029 18.126C56.2829 18.126 55.6529 18.006 55.1129 17.766C54.5729 17.514 54.1529 17.172 53.8529 16.74C53.5649 16.296 53.4209 15.798 53.4209 15.246C53.4209 14.706 53.5469 14.22 53.7989 13.788C54.0629 13.356 54.4889 13.014 55.0769 12.762C55.6649 12.51 56.4449 12.384 57.4169 12.384H60.2069V13.878H57.5789C56.8109 13.878 56.2949 14.004 56.0309 14.256C55.7669 14.496 55.6349 14.796 55.6349 15.156C55.6349 15.564 55.7969 15.888 56.1209 16.128C56.4449 16.368 56.8949 16.488 57.4709 16.488C58.0229 16.488 58.5149 16.362 58.9469 16.11C59.3909 15.858 59.7089 15.486 59.9009 14.994L60.2789 16.344C60.0629 16.908 59.6729 17.346 59.1089 17.658C58.5569 17.97 57.8549 18.126 57.0029 18.126ZM65.0385 18V8.388H67.2885V18H65.0385ZM66.1725 6.804C65.7525 6.804 65.4045 6.672 65.1285 6.408C64.8645 6.144 64.7325 5.826 64.7325 5.454C64.7325 5.07 64.8645 4.752 65.1285 4.5C65.4045 4.236 65.7525 4.104 66.1725 4.104C66.5925 4.104 66.9345 4.23 67.1985 4.482C67.4745 4.722 67.6125 5.028 67.6125 5.4C67.6125 5.796 67.4805 6.132 67.2165 6.408C66.9525 6.672 66.6045 6.804 66.1725 6.804ZM70.2416 18V4.644H72.4916V18H70.2416ZM77.5688 18L74.0408 8.388H76.1648L79.1888 16.866H78.1808L81.3488 8.388H83.2388L86.3168 16.866H85.3268L88.4408 8.388H90.4388L86.8928 18H84.7328L81.9248 10.494H82.5908L79.7288 18H77.5688ZM91.9858 18V8.388H94.2358V18H91.9858ZM93.1198 6.804C92.6998 6.804 92.3518 6.672 92.0758 6.408C91.8118 6.144 91.6798 5.826 91.6798 5.454C91.6798 5.07 91.8118 4.752 92.0758 4.5C92.3518 4.236 92.6998 4.104 93.1198 4.104C93.5398 4.104 93.8818 4.23 94.1458 4.482C94.4218 4.722 94.5598 5.028 94.5598 5.4C94.5598 5.796 94.4278 6.132 94.1638 6.408C93.8998 6.672 93.5518 6.804 93.1198 6.804ZM102.643 8.28C103.411 8.28 104.095 8.43 104.695 8.73C105.307 9.03 105.787 9.492 106.135 10.116C106.483 10.728 106.657 11.52 106.657 12.492V18H104.407V12.78C104.407 11.928 104.203 11.292 103.795 10.872C103.399 10.452 102.841 10.242 102.121 10.242C101.593 10.242 101.125 10.35 100.717 10.566C100.309 10.782 99.9909 11.106 99.7629 11.538C99.5469 11.958 99.4389 12.492 99.4389 13.14V18H97.1889V8.388H99.3309V10.98L98.9529 10.188C99.2889 9.576 99.7749 9.108 100.411 8.784C101.059 8.448 101.803 8.28 102.643 8.28ZM113.597 18.126C112.673 18.126 111.839 17.922 111.095 17.514C110.363 17.094 109.787 16.518 109.367 15.786C108.947 15.054 108.737 14.19 108.737 13.194C108.737 12.198 108.947 11.334 109.367 10.602C109.787 9.87 110.363 9.3 111.095 8.892C111.839 8.484 112.673 8.28 113.597 8.28C114.401 8.28 115.121 8.46 115.757 8.82C116.393 9.168 116.897 9.702 117.269 10.422C117.641 11.142 117.827 12.066 117.827 13.194C117.827 14.31 117.647 15.234 117.287 15.966C116.927 16.686 116.429 17.226 115.793 17.586C115.157 17.946 114.425 18.126 113.597 18.126ZM113.867 16.2C114.407 16.2 114.887 16.08 115.307 15.84C115.739 15.6 116.081 15.252 116.333 14.796C116.597 14.34 116.729 13.806 116.729 13.194C116.729 12.57 116.597 12.036 116.333 11.592C116.081 11.136 115.739 10.788 115.307 10.548C114.887 10.308 114.407 10.188 113.867 10.188C113.327 10.188 112.841 10.308 112.409 10.548C111.989 10.788 111.647 11.136 111.383 11.592C111.131 12.036 111.005 12.57 111.005 13.194C111.005 13.806 111.131 14.34 111.383 14.796C111.647 15.252 111.989 15.6 112.409 15.84C112.841 16.08 113.327 16.2 113.867 16.2ZM116.783 18V15.732L116.873 13.176L116.693 10.62V4.644H118.925V18H116.783ZM127.934 18.18C126.974 18.18 126.08 18.024 125.252 17.712C124.436 17.388 123.722 16.938 123.11 16.362C122.51 15.774 122.042 15.084 121.706 14.292C121.37 13.5 121.202 12.636 121.202 11.7C121.202 10.764 121.37 9.9 121.706 9.108C122.042 8.316 122.516 7.632 123.128 7.056C123.74 6.468 124.454 6.018 125.27 5.706C126.086 5.382 126.98 5.22 127.952 5.22C128.984 5.22 129.926 5.4 130.778 5.76C131.63 6.108 132.35 6.63 132.938 7.326L131.426 8.748C130.97 8.256 130.46 7.89 129.896 7.65C129.332 7.398 128.72 7.272 128.06 7.272C127.4 7.272 126.794 7.38 126.242 7.596C125.702 7.812 125.228 8.118 124.82 8.514C124.424 8.91 124.112 9.378 123.884 9.918C123.668 10.458 123.56 11.052 123.56 11.7C123.56 12.348 123.668 12.942 123.884 13.482C124.112 14.022 124.424 14.49 124.82 14.886C125.228 15.282 125.702 15.588 126.242 15.804C126.794 16.02 127.4 16.128 128.06 16.128C128.72 16.128 129.332 16.008 129.896 15.768C130.46 15.516 130.97 15.138 131.426 14.634L132.938 16.074C132.35 16.758 131.63 17.28 130.778 17.64C129.926 18 128.978 18.18 127.934 18.18ZM137.583 18.126C136.779 18.126 136.005 18.024 135.261 17.82C134.529 17.604 133.947 17.346 133.515 17.046L134.379 15.336C134.811 15.612 135.327 15.84 135.927 16.02C136.527 16.2 137.127 16.29 137.727 16.29C138.435 16.29 138.945 16.194 139.257 16.002C139.581 15.81 139.743 15.552 139.743 15.228C139.743 14.964 139.635 14.766 139.419 14.634C139.203 14.49 138.921 14.382 138.573 14.31C138.225 14.238 137.835 14.172 137.403 14.112C136.983 14.052 136.557 13.974 136.125 13.878C135.705 13.77 135.321 13.62 134.973 13.428C134.625 13.224 134.343 12.954 134.127 12.618C133.911 12.282 133.803 11.838 133.803 11.286C133.803 10.674 133.977 10.146 134.325 9.702C134.673 9.246 135.159 8.898 135.783 8.658C136.419 8.406 137.169 8.28 138.033 8.28C138.681 8.28 139.335 8.352 139.995 8.496C140.655 8.64 141.201 8.844 141.633 9.108L140.769 10.818C140.313 10.542 139.851 10.356 139.383 10.26C138.927 10.152 138.471 10.098 138.015 10.098C137.331 10.098 136.821 10.2 136.485 10.404C136.161 10.608 135.999 10.866 135.999 11.178C135.999 11.466 136.107 11.682 136.323 11.826C136.539 11.97 136.821 12.084 137.169 12.168C137.517 12.252 137.901 12.324 138.321 12.384C138.753 12.432 139.179 12.51 139.599 12.618C140.019 12.726 140.403 12.876 140.751 13.068C141.111 13.248 141.399 13.506 141.615 13.842C141.831 14.178 141.939 14.616 141.939 15.156C141.939 15.756 141.759 16.278 141.399 16.722C141.051 17.166 140.553 17.514 139.905 17.766C139.257 18.006 138.483 18.126 137.583 18.126ZM146.846 18.126C146.042 18.126 145.268 18.024 144.524 17.82C143.792 17.604 143.21 17.346 142.778 17.046L143.642 15.336C144.074 15.612 144.59 15.84 145.19 16.02C145.79 16.2 146.39 16.29 146.99 16.29C147.698 16.29 148.208 16.194 148.52 16.002C148.844 15.81 149.006 15.552 149.006 15.228C149.006 14.964 148.898 14.766 148.682 14.634C148.466 14.49 148.184 14.382 147.836 14.31C147.488 14.238 147.098 14.172 146.666 14.112C146.246 14.052 145.82 13.974 145.388 13.878C144.968 13.77 144.584 13.62 144.236 13.428C143.888 13.224 143.606 12.954 143.39 12.618C143.174 12.282 143.066 11.838 143.066 11.286C143.066 10.674 143.24 10.146 143.588 9.702C143.936 9.246 144.422 8.898 145.046 8.658C145.682 8.406 146.432 8.28 147.296 8.28C147.944 8.28 148.598 8.352 149.258 8.496C149.918 8.64 150.464 8.844 150.896 9.108L150.032 10.818C149.576 10.542 149.114 10.356 148.646 10.26C148.19 10.152 147.734 10.098 147.278 10.098C146.594 10.098 146.084 10.2 145.748 10.404C145.424 10.608 145.262 10.866 145.262 11.178C145.262 11.466 145.37 11.682 145.586 11.826C145.802 11.97 146.084 12.084 146.432 12.168C146.78 12.252 147.164 12.324 147.584 12.384C148.016 12.432 148.442 12.51 148.862 12.618C149.282 12.726 149.666 12.876 150.014 13.068C150.374 13.248 150.662 13.506 150.878 13.842C151.094 14.178 151.202 14.616 151.202 15.156C151.202 15.756 151.022 16.278 150.662 16.722C150.314 17.166 149.816 17.514 149.168 17.766C148.52 18.006 147.746 18.126 146.846 18.126Z" fill="black"/>
</svg>
